<?xml version="1.0" encoding="utf-8"?>
<!-- Generator: Adobe Illustrator 27.2.0, SVG Export Plug-In . SVG Version: 6.00 Build 0)  -->
<svg version="1.1" id="Layer_1" xmlns="http://www.w3.org/2000/svg" xmlns:xlink="http://www.w3.org/1999/xlink" x="0px" y="0px"
	 viewBox="0 0 500 500" style="enable-background:new 0 0 500 500;" xml:space="preserve">
<g>
	<path d="M276.8,302.5c1.6,3.1,3.1,6.1,4.7,9.4c0.9-0.7,1.7-1.2,2.4-1.9c25.8-24.1,51.7-48.1,77.4-72.3c2-1.9,3.6-4.4,4.5-7
		c6.1-17.5,24.9-22.3,37.6-9c4.1,4.3,8.3,4.4,13.3,4.5c8.1,0.2,14.1,4.2,17.3,11.6c3.2,7.5,2.1,14.7-3.7,20.4
		c-2.9,2.8-7.1,5.5-10.9,5.8c-12.2,1.2-20.7,7.1-28.8,16.1c-21.5,24.1-43.9,47.4-66,71c-2,2.2-2.9,4.3-2.9,7.2
		c0.1,24.3,0.1,48.7,0.1,73c0,1.3,0,2.7,0,4.2c-48,0-95.6,0-143.7,0c0-1.3,0-2.6,0-3.9c0-24.7,0-49.4-0.1-74.1
		c0-1.9-0.9-4.2-2.2-5.5c-25.5-27.5-51.2-55-76.8-82.4c-1.1-1.2-2.8-2.1-4.3-2.4c-4.6-1.1-9.3-2-13.9-2.9
		c-10.5-2-17.3-10.7-16.4-20.8c0.9-10,9.3-17.6,20-17.2c5.3,0.2,8.9-1.4,12.6-5.2c12.1-12.3,31.1-7.7,36.6,8.7
		c1.3,3.7,3.2,6.5,6,9.1c25.3,23.5,50.6,47.1,75.8,70.7c0.8,0.8,1.7,1.5,2.8,2.4c1.7-3.3,3.2-6.4,4.8-9.7
		c-10.6-6.9-17.9-16.3-21.8-27.9c-3.6-0.3-7.1-0.3-10.3-1c-16.1-3.4-23.9-21.3-15.4-35.4c1.3-2.2,1.2-4,0.8-6.3
		c-1.5-7.9-3.9-15.9-4.1-23.8c-0.8-36,28.1-65.3,64-65.6c11.7-0.1,23.5-0.6,35.1,0.7c38.2,4.5,63.4,41.4,54.6,79
		c-0.3,1.3-0.6,2.7-1,4c-1.6,5.3-1.8,9.9,0.9,15.5c7,14.9-4.8,32.2-21.5,32.4c-4.1,0-6.2,0.8-7.8,5.1
		C293,288.5,288,293.8,276.8,302.5z M190.1,423.5c40.2,0,79.9,0,119.8,0c0-1.6,0-3,0-4.3c0-22.1-0.1-44.1,0.1-66.2
		c0-2,1-4.4,2.3-5.8c25.3-27.3,50.8-54.6,76.3-81.8c0.7-0.8,1.4-1.7,2.2-2.7c-7-5.6-13.8-11-20.6-16.4c-0.6,0.5-1,0.7-1.4,1.1
		c-27.1,25.3-54.2,50.5-81.2,75.9c-1.1,1-1.6,3-1.6,4.5c-0.1,13.6-0.1,27.2-0.1,40.8c0,1-0.1,2-0.3,3.7c-3-3.1-5.6-5.6-8.1-8.2
		c-16.5-16.4-38.6-16.4-55.1,0c-2.6,2.6-5.2,5.1-8.4,8.3c0-15.4-0.1-29.8,0.1-44.3c0-2.4-0.7-4.1-2.5-5.8
		c-23.3-21.6-46.5-43.4-69.8-65.1c-3.9-3.6-7.8-7.3-11.9-11.1c-7,5.6-13.8,11.1-20.8,16.6c0.8,0.9,1.3,1.5,1.8,2.1
		c25.4,27.3,50.9,54.5,76.4,81.7c2,2.2,2.9,4.3,2.8,7.2c-0.2,10.6-0.1,21.2-0.1,31.8C190.1,398.1,190.1,410.7,190.1,423.5z
		 M309.6,202.4c0.7,6.8-0.8,12.8-4.4,18.3c-0.9,1.5-1.4,3.2-2.2,5c3.5,0.6,6.2,1.1,9.2,1.7c0.6-2.4,1.3-4.7,1.8-6.9
		c7.7-31.4-12-61.3-43.9-65.5c-10.9-1.4-22.2-0.7-33.2-0.7c-15.5,0-28.7,5.9-39.1,17.3c-14.1,15.5-17.3,36.8-9.7,55.7
		c2.7-0.5,5.5-1.1,8-1.6c0-3-0.1-5.8,0-8.5c0.3-7.8,3.5-14.2,9.9-18.8c18.3-13.5,44.5-10.3,59.1,7c2.8,3.3,5.4,6.9,8.3,10.1
		c3.7,4,8.3,5.4,13.6,4.1c5.4-1.4,9-4.8,10.4-10.2c0.6-2.2,0.6-4.6,0.9-7.1C301.9,202.4,305.6,202.4,309.6,202.4z M291.3,231.2
		c-14.1,3.1-23.9-2.2-31.4-12.8c-1-1.4-2.2-2.7-3.3-4.1c-9-11.1-22.4-14.9-35.9-10.1c-10.6,3.8-13.4,8.2-12.5,19.4
		c1,12.5,2,25.1,2.8,37.7c1.2,19.3,16.4,34.9,35.7,36.7c18.9,1.7,37.3-11,41-29.8C290,256.3,290.1,243.9,291.3,231.2z M227.5,320.3
		c7.1,5.7,13.9,11.2,20.9,16.6c0.6,0.5,2.3,0.6,2.8,0.1c7.1-5.5,14-11.1,21-16.8c-1.8-3.7-3.6-7.1-5.2-10.6
		c-0.8-1.8-1.8-2.2-3.8-1.6c-8.8,2.6-17.7,2.6-26.5,0c-2.1-0.6-3.2-0.3-4.1,1.7C231.2,313.3,229.4,316.6,227.5,320.3z M112.6,225.6
		c-2.2,1.2-5.2,1.8-6.6,3.6c-5.7,7.5-12.8,10.5-22.2,9.2c-4.1-0.6-7,2.5-7.5,6.3c-0.4,3.7,1.9,6.9,5.9,7.8c4.7,1.1,9.5,2.1,14.2,2.9
		c1.2,0.2,2.8-0.2,3.7-0.9c7.1-5.5,14.1-11.1,21-16.8c0.8-0.6,1.5-2.1,1.4-3C121.9,229.9,117.6,226.3,112.6,225.6z M387.5,225.5
		c-4.4,0.7-7.8,3.1-9.6,7.1c-1.1,2.4-0.9,4,1.4,5.7c3.4,2.4,6.6,5.3,10,7.9c4,3.1,7.7,7.9,12.2,8.9c4.8,1,10.4-1.4,15.6-2.5
		c4.4-0.9,6.8-3.9,6.5-7.7c-0.4-4-3.5-7.1-8.1-6.5c-9,1.2-15.8-1.6-21.2-8.8C392.8,227.6,389.8,226.8,387.5,225.5z M197.3,238.2
		c-5.2-0.2-9,1.7-11.5,5.9c-2.5,4.2-2.4,8.6,0.4,12.7c3,4.4,7.3,6,12.9,5.1C198.4,253.9,197.9,246.2,197.3,238.2z M300.8,261.9
		c5.8,0.8,10.2-0.9,13.1-5.5c2.6-4.2,2.5-8.5-0.2-12.7c-2.6-3.9-6.3-5.8-11.2-5.4C302,246.2,301.4,253.8,300.8,261.9z M226.3,334.7
		c0,4,0,7.3,0,10.9c3.1-1.3,5.8-2.5,8.9-3.8C232.1,339.3,229.4,337.2,226.3,334.7z M273.6,345.5c0-3.6,0-7,0-10.8
		c-3.2,2.5-5.9,4.7-9,7.1C267.9,343.2,270.7,344.3,273.6,345.5z"/>
	<path d="M189.9,138c-8.9-7.4-17.9-14.9-26.9-22.4c-1.8-1.5-3.7-3-5.4-4.6c-10.3-9.2-12.3-23.4-5.1-34.5
		c7.3-11.2,22.1-15.3,34.4-9.4c2.4,1.1,4.1,1.2,6.5,0c12.2-5.9,27-1.8,34.4,9.4c7.3,11.1,5.4,25.4-5,34.5c-10.4,9-21,17.6-31.6,26.4
		C190.8,137.5,190.4,137.7,189.9,138z M190.2,85.6c-1.9-2.1-3-3.5-4.4-4.8c-6.5-6.1-16.4-5.8-22.1,0.6c-5.6,6.3-4.7,15.3,2.3,21.1
		c7.1,5.9,14.2,11.8,21.3,17.7c0.9,0.8,1.9,1.5,2.9,2.2c8.2-6.9,16.2-13.5,24.1-20.1c6.7-5.7,7.6-14.7,2.2-20.9
		c-5.5-6.3-15.5-6.8-21.8-1C193.2,81.8,192,83.4,190.2,85.6z"/>
	<path d="M309.7,138.2c-11.6-9.8-23.3-19-34.3-29.1c-9.4-8.6-10-23.2-2.5-33.5c7.6-10.5,21.9-14.2,33.7-8.4c2.4,1.2,4.1,1.1,6.5-0.1
		c12.3-5.9,27-1.7,34.3,9.5c7.3,11.1,5.3,25.4-5.1,34.4c-9.8,8.5-19.9,16.7-29.8,25C311.7,136.6,311,137.2,309.7,138.2z M309.8,85.7
		c-2-2.3-3.3-4.2-5-5.7c-6.3-5.5-16.1-4.7-21.5,1.6c-5.3,6.2-4.4,15,2.2,20.6c6.8,5.8,13.8,11.5,20.7,17.2c1.2,1,2.5,2,3.7,3
		c8.3-6.9,16.2-13.5,24.1-20.1c6.8-5.7,7.6-14.6,2.2-20.9c-5.5-6.3-15.5-6.9-21.8-1.1C313,81.8,311.8,83.4,309.8,85.7z"/>
	<path d="M106.2,198.1c-11.7-9.9-23.4-19.3-34.5-29.5c-3.2-2.9-5.3-7.6-6.4-11.9c-2.7-10.5,0.6-19.6,9-26.4
		c8.8-7.1,18.6-7.8,28.8-3.4c2.4,1.1,4.1,1.1,6.5,0c12.3-5.9,27-1.8,34.4,9.4c7.3,11.1,5.4,25.4-5.1,34.5
		C128.1,180,117.2,188.9,106.2,198.1z M106.7,145.1c-2.4-2.3-4-4-5.8-5.5c-6.1-5-15.4-4.3-20.7,1.4c-5.2,5.6-5.5,14.4,0.2,19.6
		c8.3,7.5,17.1,14.5,25.9,21.9c8.2-6.9,16.3-13.5,24.3-20.2c6.7-5.7,7.6-14.7,2.1-20.9c-5.5-6.3-15.5-6.8-21.8-1
		C109.4,141.7,108.2,143.3,106.7,145.1z"/>
	<path d="M393.7,198.1c-11.1-9.2-21.9-18-32.5-27.1c-10.5-9-12.5-23.3-5.3-34.4c7.3-11.2,22-15.5,34.3-9.6c2.5,1.2,4.3,1.1,6.8,0
		c12.1-5.8,26.7-1.6,34.1,9.4c7.4,11,5.5,25.5-4.9,34.5C415.7,180,404.7,188.8,393.7,198.1z M394.1,145.2c-2.5-2.3-4.1-4.1-5.9-5.6
		c-6.1-5-15.4-4.3-20.7,1.5c-5.1,5.5-5.5,14.2,0,19.3c8.3,7.7,17.2,14.7,26.1,22.1c8.3-6.9,16.3-13.5,24.3-20.3
		c6.7-5.7,7.6-14.7,2.1-20.9c-5.6-6.3-15.5-6.8-21.8-0.9C396.8,141.7,395.6,143.4,394.1,145.2z"/>
	<path d="M226,250.3c16,0,31.6,0,47.8,0c-0.1,7.3,1.2,14.7-2.1,21.8c-4.7,10-15.6,15.6-26.2,13.4c-11.3-2.3-19.2-11.6-19.4-22.9
		C225.9,258.7,226,254.6,226,250.3z M261.8,262.3c-8,0-15.8,0-23.6,0c-0.5,5.6,5.1,11.8,11.7,11.8
		C256.3,274.1,261.2,269.4,261.8,262.3z"/>
</g>
</svg>
